<?xml version="1.0" encoding="UTF-8" standalone="no"?>
<!-- Generator: Assembly 2.2 - http://assemblyapp.co -->

<svg
   version="1.1"
   width="2048.00"
   height="2048.00"
   viewBox="0 0 2048.0 2048.0"
   id="svg1"
   sodipodi:docname="cubicle.svg"
   inkscape:version="1.3.2 (091e20ef0f, 2023-11-25)"
   xmlns:inkscape="http://www.inkscape.org/namespaces/inkscape"
   xmlns:sodipodi="http://sodipodi.sourceforge.net/DTD/sodipodi-0.dtd"
   xmlns="http://www.w3.org/2000/svg"
   xmlns:svg="http://www.w3.org/2000/svg">
  <defs
     id="defs1" />
  <sodipodi:namedview
     id="namedview1"
     pagecolor="#ffffff"
     bordercolor="#000000"
     borderopacity="0.25"
     inkscape:showpageshadow="2"
     inkscape:pageopacity="0.0"
     inkscape:pagecheckerboard="0"
     inkscape:deskcolor="#d1d1d1"
     inkscape:zoom="0.53676254"
     inkscape:cx="673.48217"
     inkscape:cy="1072.1687"
     inkscape:window-width="1920"
     inkscape:window-height="1055"
     inkscape:window-x="0"
     inkscape:window-y="0"
     inkscape:window-maximized="1"
     inkscape:current-layer="document" />
  <g
     id="document"
     transform="matrix(1,0,0,1,1024.0,1024.0)">
    <path
       d="M 358.91404,269.60414 358.75505,15.421234 358.64704,-157.26686 c 0,-6.639 -6.361,-11.618 -13.177,-11.618 -7.271,0 -12.724,4.979 -12.724,11.618 l 0.0859,137.299585 0.19115,305.681415 -83.138,51.73 -0.293,-425.836695 c 0,-6.2236 -5.908,-11.617405 -12.724,-11.617405 -7.27,0 -12.723,5.393805 -12.723,11.617405 l 0.305,441.662695 -84.496,52.575 -0.327,-424.118495 c 0,-6.2236 -5.452,-11.6174 -12.723,-11.6174 -7.27,0 -12.723,5.3938 -12.723,11.6174 l 0.33895,439.944495 -83.5788,52.005 -0.296028,-339.0423 -0.07337,-84.032795 c 0,-6.6385 -5.4528,-11.6173 -12.7232,-11.6173 -6.81592,0 -12.7230996,4.9788 -12.7230996,11.6173 l 0.3804,435.641095 c -5.58269003,0.452 -11.1654,-1.183 -16.7481004,-4.905 l -371.7248,-232.328 c -6.638,-4.979 -11.617,-11.617 -11.617,-21.574 v -83.15 -378.587 c 0,-9.957 6.638,-18.254 13.276,-21.573 l 373.3848004,-232.328 c 9.95693,-6.638 19.9138596,-6.638 29.8707996,0 l 371.7254,232.328 c 6.638,4.978 11.616,11.616 11.616,21.573 v 378.587 83.15 c 0,9.957 -6.638,18.255 -13.276,21.574 z m -1019.016,-420.755 v 229.232405 265.517595 39.828 c 0,9.957 6.638,18.254 13.276,21.573 l 637.2433004,398.277 c 11.61643,4.979 23.2328396,4.979 29.8707996,0 l 637.2429,-398.277 c 8.298,-6.638 13.276,-13.275 13.276,-21.573 v -39.828 -265.517595 -229.232405 -199.315 -39.828 c 0,-9.956 -6.638,-18.254 -13.276,-21.573 l -637.2429,-398.277 c -11.6164196,-4.978 -23.2328296,-4.978 -29.8707996,0 l -637.2433004,398.277 c -8.297,6.638 -13.276,13.276 -13.276,21.573 v 39.828 z"
       fill="#100906"
       fill-opacity="1.00"
       id="path1"
       style="fill:#9290c3;fill-opacity:1"
       sodipodi:nodetypes="cccscccccsccccscccccsccccscsccccscscccccsccccsccccsccccscc" />
  </g>
</svg>
